<?xml version="1.0" standalone="no"?>
<!DOCTYPE svg PUBLIC "-//W3C//DTD SVG 20010904//EN"
 "http://www.w3.org/TR/2001/REC-SVG-20010904/DTD/svg10.dtd">
<svg version="1.0" xmlns="http://www.w3.org/2000/svg"
 width="472.000000pt" height="139.000000pt" viewBox="0 0 472.000000 139.000000"
 preserveAspectRatio="xMidYMid meet">
<metadata>
Created by potrace 1.15, written by Peter Selinger 2001-2017
</metadata>
<g transform="translate(0.000000,139.000000) scale(0.100000,-0.100000)"
fill="#000000" stroke="none">
<path d="M3620 1371 c-112 -34 -206 -136 -239 -256 -14 -52 -45 -572 -38 -645
5 -57 35 -145 45 -135 4 3 28 61 55 128 l49 122 14 240 c14 227 16 243 42 295
27 55 73 95 120 107 22 5 110 -11 399 -76 l82 -19 -10 25 c-14 39 -11 53 21
85 17 17 29 32 27 34 -2 2 -104 26 -227 54 -216 48 -287 57 -340 41z"/>
<path d="M4364 1345 c-22 -20 -34 -34 -28 -31 16 8 25 -46 14 -84 -9 -33 -36
-70 -51 -70 -4 0 -9 10 -11 21 -2 13 -16 -17 -34 -74 -25 -75 -28 -94 -16 -90
12 5 14 0 8 -33 -23 -122 -113 -337 -164 -391 -16 -18 -41 -51 -54 -75 -28
-51 -47 -54 -68 -12 -9 17 -21 29 -26 27 -6 -2 -19 8 -28 22 -20 30 -12 52 12
33 14 -11 15 -10 9 6 -4 10 -19 60 -33 110 -40 140 -79 187 -141 171 -22 -5
-33 -25 -13 -25 13 0 42 -58 35 -70 -3 -5 0 -22 8 -37 8 -15 27 -75 42 -133
44 -165 79 -217 152 -227 49 -6 99 26 131 85 41 74 129 295 198 499 37 109 70
202 74 206 5 5 20 -11 35 -35 l27 -43 -6 40 c-3 22 -8 81 -12 130 -9 122 -12
126 -60 80z"/>
<path d="M4577 1269 c-28 -16 -49 -67 -42 -100 12 -56 84 -86 137 -58 31 17
50 71 37 107 -18 53 -85 78 -132 51z m94 -27 c48 -40 17 -122 -47 -122 -35 0
-74 37 -74 70 0 10 9 29 21 44 25 31 66 35 100 8z"/>
<path d="M4500 1112 c0 -48 -20 -72 -61 -72 l-30 0 26 -37 c32 -48 32 -70 0
-330 -31 -253 -38 -281 -83 -334 -51 -59 -82 -69 -215 -69 -109 0 -114 -1
-138 -26 -47 -50 -57 -50 -108 -1 l-46 45 -100 5 c-55 3 -107 9 -116 12 -10 4
-19 -5 -28 -32 -7 -21 -25 -50 -39 -65 l-25 -27 29 -11 c43 -17 120 -30 173
-30 44 0 48 -3 109 -70 39 -43 71 -70 84 -70 11 0 50 27 86 59 l67 59 110 4
c99 3 115 7 163 32 29 16 73 51 98 78 77 82 92 128 125 385 38 298 38 352 -1
429 -16 33 -41 71 -55 84 l-25 23 0 -41z"/>
<path d="M3116 728 c-3 -29 -11 -144 -17 -256 -13 -250 -15 -246 91 -257 39
-4 73 -6 74 -4 2 2 6 23 9 46 5 41 4 41 -30 48 l-36 6 7 67 c3 37 6 95 6 130
0 54 2 62 18 62 22 0 47 25 56 58 7 20 4 22 -28 22 l-36 0 0 49 c0 61 -17 81
-70 81 l-39 0 -5 -52z"/>
<path d="M3695 710 c-22 -9 -48 -37 -58 -63 -3 -9 -11 -17 -17 -17 -6 0 -9 -4
-6 -9 4 -5 -6 -33 -20 -63 -67 -139 -81 -159 -93 -139 -6 9 -17 -12 -34 -64
-29 -86 -25 -115 18 -115 32 0 44 20 99 162 25 65 67 163 93 218 27 55 46 100
43 99 -3 0 -14 -4 -25 -9z"/>
<path d="M123 643 c-50 -17 -89 -59 -102 -111 -6 -20 -13 -101 -17 -180 l-7
-143 59 3 59 3 12 160 c6 88 11 161 12 162 6 14 66 32 86 27 51 -13 56 -36 46
-195 -5 -79 -7 -147 -5 -151 9 -14 114 -9 114 5 0 6 5 77 10 156 10 164 20
185 84 185 66 0 70 -11 63 -170 -7 -167 -3 -177 64 -178 l44 -1 6 75 c13 155
10 253 -9 290 -35 71 -152 100 -256 65 -41 -14 -49 -14 -75 0 -38 19 -132 18
-188 -2z"/>
<path d="M795 643 c-79 -41 -115 -112 -115 -223 1 -139 52 -202 171 -208 81
-5 144 19 181 69 47 63 45 69 -21 69 -45 0 -62 -4 -76 -20 -41 -45 -135 -14
-135 45 l0 25 140 0 140 0 0 63 c0 128 -69 197 -195 197 -35 -1 -73 -7 -90
-17z"/>
<path d="M1470 649 c-68 -28 -118 -108 -127 -202 -10 -111 35 -202 113 -227
55 -19 152 -8 195 20 37 24 79 77 79 98 0 21 -98 15 -127 -8 -39 -30 -96 -27
-123 8 -19 23 -21 37 -18 94 5 87 28 122 85 126 29 2 44 -2 58 -18 14 -16 30
-20 77 -20 57 0 59 1 53 23 -9 31 -36 67 -69 91 -31 24 -153 33 -196 15z"/>
<path d="M1842 643 c-32 -15 -62 -50 -75 -85 -6 -16 0 -18 47 -18 29 0 67 7
85 16 59 29 150 -15 93 -45 -10 -6 -51 -17 -90 -25 -123 -26 -162 -61 -162
-145 0 -92 45 -131 149 -131 80 0 134 16 167 49 46 46 56 77 61 202 7 134 -2
160 -62 185 -47 19 -171 18 -213 -3z"/>
<path d="M2220 638 c-55 -29 -83 -77 -76 -131 7 -58 38 -84 140 -116 98 -30
124 -52 92 -77 -40 -29 -136 -7 -136 32 0 11 -14 14 -60 14 -68 0 -73 -9 -46
-75 22 -51 76 -75 173 -75 129 1 203 53 203 143 0 77 -32 102 -178 143 -68 18
-87 38 -57 60 32 23 83 17 111 -13 20 -22 34 -27 72 -27 46 -1 47 0 45 29 -3
38 -31 76 -74 97 -51 27 -153 24 -209 -4z"/>
<path d="M2780 641 c-49 -25 -80 -75 -80 -126 0 -68 44 -101 175 -134 22 -6
49 -17 60 -25 19 -14 19 -15 1 -35 -32 -35 -116 -26 -135 15 -9 21 -17 24 -66
24 l-55 0 0 -34 c0 -44 38 -91 87 -107 21 -7 69 -10 119 -7 75 4 88 8 121 35
42 33 70 95 60 135 -13 50 -41 70 -143 103 -71 23 -100 37 -102 50 -9 42 71
48 118 9 19 -17 47 -28 75 -32 43 -4 45 -4 45 22 0 43 -27 84 -70 106 -53 27
-161 28 -210 1z"/>
<path d="M1213 626 c-92 -43 -119 -109 -125 -311 l-3 -100 58 -3 c31 -2 57 1
57 5 1 4 5 66 10 138 8 122 10 131 35 152 18 16 39 23 66 23 34 0 39 3 39 23
0 12 3 39 6 60 l7 37 -49 0 c-31 0 -69 -9 -101 -24z"/>
<path d="M2546 558 c-3 -51 -9 -151 -12 -221 l-7 -128 59 3 59 3 6 85 c4 47 9
137 13 201 8 137 2 149 -68 149 l-43 0 -7 -92z"/>
</g>
</svg>
